<?xml version="1.0" encoding="iso-8859-1"?>
<!-- Generator: Adobe Illustrator 19.0.0, SVG Export Plug-In . SVG Version: 6.00 Build 0)  -->
<svg version="1.1" id="Layer_1" xmlns="http://www.w3.org/2000/svg" xmlns:xlink="http://www.w3.org/1999/xlink" x="0px" y="0px"
	 viewBox="0 0 512 512" style="enable-background:new 0 0 512 512;" xml:space="preserve">
<circle style="fill:#273B7A;" cx="256" cy="256" r="256"/>
<path style="fill:#121149;" d="M85.333,310.096l200.197,200.197c115.172-13.231,207.088-102.883,223.753-216.976L352.218,136.252
	l-35.221,15.798l-15.796-15.798l-13.309,10.28l-14.191,40.589l100.473,100.473l-35.144,2.738l-38.297-38.297L85.333,310.096z"/>
<path style="fill:#FF314F;" d="M256.862,153.248c0-17.594,11.385-25.428,25.428-25.428s25.428,11.385,25.428,25.428
	c0-14.043,11.385-25.428,25.428-25.428s25.428,10.916,25.428,25.428c0,35.573-50.855,55.093-50.855,55.093
	S256.862,189.078,256.862,153.248z"/>
<path style="fill:#A30F44;" d="M307.717,153.248c0-14.043,11.385-25.428,25.428-25.428s25.428,10.916,25.428,25.428
	c0,35.573-50.855,55.093-50.855,55.093V153.248z"/>
<path style="fill:#FFEDB5;" d="M394.238,262.032h-73.592c0,17.529-16.241,31.789-36.202,31.789h-56.889
	c-4.284,0-7.758-3.474-7.758-7.758s3.474-7.758,7.758-7.758h56.889c11.407,0,20.687-7.301,20.687-16.274s-9.28-16.274-20.687-16.274
	H85.333v64.34l98.957,33.444c28.046,9.478,59.027,10.818,88.071,3.806l130.786-31.572c13.922-3.36,23.519-14.112,23.519-26.345
	C426.667,274.299,412.148,262.032,394.238,262.032z"/>
<g>
	<path style="fill:#FEE187;" d="M394.238,262.032h-73.592c0,17.529-16.241,31.789-36.202,31.789h-30.168v56.768
		c6.08-0.738,12.124-1.805,18.084-3.243l130.786-31.572c13.922-3.36,23.519-14.112,23.519-26.345
		C426.667,274.299,412.148,262.032,394.238,262.032z"/>
	<path style="fill:#FEE187;" d="M284.444,278.306c11.407,0,20.687-7.301,20.687-16.274s-9.28-16.274-20.687-16.274h-30.168v32.549
		h30.168V278.306z"/>
</g>
<g>
</g>
<g>
</g>
<g>
</g>
<g>
</g>
<g>
</g>
<g>
</g>
<g>
</g>
<g>
</g>
<g>
</g>
<g>
</g>
<g>
</g>
<g>
</g>
<g>
</g>
<g>
</g>
<g>
</g>
</svg>
